<svg width="526" height="526" xmlns="http://www.w3.org/2000/svg" xmlns:xlink="http://www.w3.org/1999/xlink" overflow="hidden"><defs><clipPath id="clip0"><rect x="377" y="97" width="526" height="526"/></clipPath></defs><g clip-path="url(#clip0)" transform="translate(-377 -97)"><path d="M378 360C378 215.301 495.301 98 640 98 784.699 98 902 215.301 902 360 902 504.699 784.699 622 640 622 495.301 622 378 504.699 378 360ZM423.357 360C423.357 479.649 520.351 576.643 640 576.643 759.649 576.643 856.643 479.649 856.643 360 856.643 240.351 759.649 143.357 640 143.357 520.351 143.357 423.357 240.351 423.357 360Z" fill="#01949A" fill-rule="evenodd"/></g></svg>