<svg width="722" height="722" xmlns="http://www.w3.org/2000/svg" xmlns:xlink="http://www.w3.org/1999/xlink" overflow="hidden"><defs><clipPath id="clip0"><rect x="279" y="-1" width="722" height="722"/></clipPath></defs><g clip-path="url(#clip0)" transform="translate(-279 1)"><path d="M280 360C280 161.177 441.177-4.58328e-14 640-9.16656e-14 838.823-1.83331e-13 1000 161.177 1000 360 1000 558.823 838.823 720 640 720 441.177 720 280 558.823 280 360ZM342.323 360C342.323 524.403 475.597 657.677 640 657.677 804.403 657.677 937.677 524.403 937.677 360 937.677 195.597 804.403 62.3228 640 62.3228 475.597 62.3228 342.323 195.597 342.323 360Z" fill="#01949A" fill-rule="evenodd"/></g></svg>